<svg width="23" height="22" viewBox="0 0 23 22" fill="none" xmlns="http://www.w3.org/2000/svg">
<path d="M16.9706 7.23324C16.9706 5.79462 16.3992 4.41491 15.3819 3.39765C14.3646 2.38039 12.9849 1.8089 11.5463 1.8089C10.1077 1.8089 8.72798 2.38039 7.71071 3.39765C6.69345 4.41491 6.12196 5.79462 6.12196 7.23324C6.12196 13.5616 3.40979 15.3698 3.40979 15.3698H19.6828C19.6828 15.3698 16.9706 13.5616 16.9706 7.23324Z" stroke="black" stroke-width="2.16974" stroke-linecap="round" stroke-linejoin="round"/>
<path d="M13.1108 18.9857C12.9519 19.2597 12.7237 19.4872 12.4493 19.6453C12.1748 19.8034 11.8636 19.8866 11.5468 19.8866C11.23 19.8866 10.9188 19.8034 10.6444 19.6453C10.3699 19.4872 10.1417 19.2597 9.98279 18.9857" stroke="black" stroke-width="2.16974" stroke-linecap="round" stroke-linejoin="round"/>
</svg>
