<svg width="23" height="23" viewBox="0 0 23 23" fill="none" xmlns="http://www.w3.org/2000/svg">
<path d="M16.668 8.23324C16.668 6.79462 16.0965 5.41491 15.0793 4.39765C14.062 3.38039 12.6823 2.8089 11.2437 2.8089C9.80507 2.8089 8.42536 3.38039 7.4081 4.39765C6.39084 5.41491 5.81935 6.79462 5.81935 8.23324C5.81935 14.5616 3.10718 16.3698 3.10718 16.3698H19.3802C19.3802 16.3698 16.668 14.5616 16.668 8.23324Z" stroke="black" stroke-width="2.16974" stroke-linecap="round" stroke-linejoin="round"/>
<path d="M12.8082 19.9857C12.6493 20.2597 12.4211 20.4872 12.1466 20.6453C11.8722 20.8034 11.561 20.8866 11.2442 20.8866C10.9274 20.8866 10.6162 20.8034 10.3417 20.6453C10.0673 20.4872 9.83912 20.2597 9.68018 19.9857" stroke="black" stroke-width="2.16974" stroke-linecap="round" stroke-linejoin="round"/>
<circle cx="17.3948" cy="5" r="5" fill="#FF0000"/>
</svg>
